<mxfile host="65bd71144e">
    <diagram id="_uV8WsSECseSohdQX9T0" name="Cliente">
        <mxGraphModel dx="2678" dy="3210" grid="1" gridSize="50" guides="1" tooltips="1" connect="1" arrows="1" fold="1" page="1" pageScale="1" pageWidth="413" pageHeight="291" math="0" shadow="0">
            <root>
                <mxCell id="0"/>
                <mxCell id="1" parent="0"/>
                <object placeholders="1" c4Name="Escopo do Sistema" c4Type="SystemScopeBoundary" c4Application="Plataform.MyFood" label="&lt;font style=&quot;font-size: 16px&quot;&gt;&lt;b&gt;&lt;div style=&quot;text-align: left&quot;&gt;%c4Name%&lt;/div&gt;&lt;/b&gt;&lt;/font&gt;&lt;div style=&quot;text-align: left&quot;&gt;[%c4Application%]&lt;/div&gt;" id="Soncr6TduwRKnoVzpao1-6">
                    <mxCell style="rounded=1;fontSize=11;whiteSpace=wrap;html=1;dashed=1;arcSize=20;labelBackgroundColor=none;align=left;verticalAlign=bottom;labelBorderColor=none;spacingTop=0;spacing=10;dashPattern=8 4;metaEdit=1;rotatable=0;perimeter=rectanglePerimeter;noLabel=0;labelPadding=0;allowArrows=0;connectable=0;expand=0;recursiveResize=0;editable=1;pointerEvents=0;absoluteArcSize=1;points=[[0.25,0,0],[0.5,0,0],[0.75,0,0],[1,0.25,0],[1,0.5,0],[1,0.75,0],[0.75,1,0],[0.5,1,0],[0.25,1,0],[0,0.75,0],[0,0.5,0],[0,0.25,0]];fillColor=#647687;fontColor=#ffffff;strokeColor=#314354;" parent="1" vertex="1">
                        <mxGeometry x="-660" y="-150" width="2220" height="950" as="geometry"/>
                    </mxCell>
                </object>
                <object placeholders="1" c4Type="PT.MY.Payment.ConsoleApp" c4Container="PT.MY.Payment" c4Technology="NET 6, ConsoleApp" c4Description="Gerenciar todo tipo de pagamento da Plataforma" label="&lt;font style=&quot;font-size: 16px&quot;&gt;&lt;b&gt;%c4Type%&lt;/font&gt;&lt;div&gt;[%c4Container%:&amp;nbsp;%c4Technology%]&lt;/div&gt;&lt;br&gt;&lt;div&gt;&lt;font style=&quot;font-size: 11px&quot;&gt;&lt;font color=&quot;#E6E6E6&quot;&gt;%c4Description%&lt;/font&gt;&lt;/div&gt;" id="W4E02yLoTRZ_GBcOoKTg-1">
                    <mxCell style="shape=hexagon;size=50;perimeter=hexagonPerimeter2;whiteSpace=wrap;html=1;fixedSize=1;rounded=1;labelBackgroundColor=none;fillColor=#23A2D9;fontSize=12;fontColor=#ffffff;align=center;strokeColor=#0E7DAD;metaEdit=1;points=[[0.5,0,0],[1,0.25,0],[1,0.5,0],[1,0.75,0],[0.5,1,0],[0,0.75,0],[0,0.5,0],[0,0.25,0]];resizable=0;shadow=1;" parent="1" vertex="1">
                        <mxGeometry x="-330" y="585" width="200" height="170" as="geometry"/>
                    </mxCell>
                </object>
                <object placeholders="1" c4Type="PT.MY.Catalog.API" c4Container="PT.MY.Catalog" c4Technology="NET 6, API" c4Description="Gerenciar todo tipo de cadastro de Produtos dentro de uma Loja. Tais como: Loja, Categoria, Produto e Tags " label="&lt;font style=&quot;font-size: 16px&quot;&gt;&lt;b&gt;%c4Type%&lt;/font&gt;&lt;div&gt;[%c4Container%:&amp;nbsp;%c4Technology%]&lt;/div&gt;&lt;br&gt;&lt;div&gt;&lt;font style=&quot;font-size: 11px&quot;&gt;&lt;font color=&quot;#E6E6E6&quot;&gt;%c4Description%&lt;/font&gt;&lt;/div&gt;" id="W4E02yLoTRZ_GBcOoKTg-2">
                    <mxCell style="shape=hexagon;size=50;perimeter=hexagonPerimeter2;whiteSpace=wrap;html=1;fixedSize=1;rounded=1;labelBackgroundColor=none;fillColor=#23A2D9;fontSize=12;fontColor=#ffffff;align=center;strokeColor=#0E7DAD;metaEdit=1;points=[[0.5,0,0],[1,0.25,0],[1,0.5,0],[1,0.75,0],[0.5,1,0],[0,0.75,0],[0,0.5,0],[0,0.25,0]];resizable=0;shadow=1;" vertex="1" parent="1">
                        <mxGeometry y="585" width="200" height="170" as="geometry"/>
                    </mxCell>
                </object>
                <object placeholders="1" c4Type="PT.MY.Basket.API" c4Container="PT.MY.Basket" c4Technology="NET 6, API" c4Description="Gerenciar todo tipo de Produto dentro do Carrinho de Compras " label="&lt;font style=&quot;font-size: 16px&quot;&gt;&lt;b&gt;%c4Type%&lt;/font&gt;&lt;div&gt;[%c4Container%:&amp;nbsp;%c4Technology%]&lt;/div&gt;&lt;br&gt;&lt;div&gt;&lt;font style=&quot;font-size: 11px&quot;&gt;&lt;font color=&quot;#E6E6E6&quot;&gt;%c4Description%&lt;/font&gt;&lt;/div&gt;" id="W4E02yLoTRZ_GBcOoKTg-3">
                    <mxCell style="shape=hexagon;size=50;perimeter=hexagonPerimeter2;whiteSpace=wrap;html=1;fixedSize=1;rounded=1;labelBackgroundColor=none;fillColor=#23A2D9;fontSize=12;fontColor=#ffffff;align=center;strokeColor=#0E7DAD;metaEdit=1;points=[[0.5,0,0],[1,0.25,0],[1,0.5,0],[1,0.75,0],[0.5,1,0],[0,0.75,0],[0,0.5,0],[0,0.25,0]];resizable=0;shadow=1;" vertex="1" parent="1">
                        <mxGeometry x="324" y="585" width="200" height="170" as="geometry"/>
                    </mxCell>
                </object>
                <object placeholders="1" c4Type="PT.MY.Order.API" c4Container="PT.MY.Order" c4Technology="NET 6, API" c4Description="Gerenciar todo tipo de Pedido. Com informações importante sobre os envolvidos (Cliente e Loja) para o cliente, (Cliente, Loja e Motoboy) para Entregador e (Cliente e Loja) para o Comerciante." label="&lt;font style=&quot;font-size: 16px&quot;&gt;&lt;b&gt;%c4Type%&lt;/font&gt;&lt;div&gt;[%c4Container%:&amp;nbsp;%c4Technology%]&lt;/div&gt;&lt;br&gt;&lt;div&gt;&lt;font style=&quot;font-size: 11px&quot;&gt;&lt;font color=&quot;#E6E6E6&quot;&gt;%c4Description%&lt;/font&gt;&lt;/div&gt;" id="W4E02yLoTRZ_GBcOoKTg-4">
                    <mxCell style="shape=hexagon;size=50;perimeter=hexagonPerimeter2;whiteSpace=wrap;html=1;fixedSize=1;rounded=1;labelBackgroundColor=none;fillColor=#23A2D9;fontSize=12;fontColor=#ffffff;align=center;strokeColor=#0E7DAD;metaEdit=1;points=[[0.5,0,0],[1,0.25,0],[1,0.5,0],[1,0.75,0],[0.5,1,0],[0,0.75,0],[0,0.5,0],[0,0.25,0]];resizable=0;shadow=1;" vertex="1" parent="1">
                        <mxGeometry x="1015" y="585" width="200" height="170" as="geometry"/>
                    </mxCell>
                </object>
                <object placeholders="1" c4Type="PT.MY.Shipping.API" c4Container="PT.MY.Shipping" c4Technology="NET 6, API, WebSocket" c4Description="Gerenciar todo tipo de trajetoria entre Loja e Motobou até o Cliente." label="&lt;font style=&quot;font-size: 16px&quot;&gt;&lt;b&gt;%c4Type%&lt;/font&gt;&lt;div&gt;[%c4Container%:&amp;nbsp;%c4Technology%]&lt;/div&gt;&lt;br&gt;&lt;div&gt;&lt;font style=&quot;font-size: 11px&quot;&gt;&lt;font color=&quot;#E6E6E6&quot;&gt;%c4Description%&lt;/font&gt;&lt;/div&gt;" id="W4E02yLoTRZ_GBcOoKTg-5">
                    <mxCell style="shape=hexagon;size=50;perimeter=hexagonPerimeter2;whiteSpace=wrap;html=1;fixedSize=1;rounded=1;labelBackgroundColor=none;fillColor=#23A2D9;fontSize=12;fontColor=#ffffff;align=center;strokeColor=#0E7DAD;metaEdit=1;points=[[0.5,0,0],[1,0.25,0],[1,0.5,0],[1,0.75,0],[0.5,1,0],[0,0.75,0],[0,0.5,0],[0,0.25,0]];resizable=0;shadow=1;" vertex="1" parent="1">
                        <mxGeometry x="670" y="585" width="200" height="170" as="geometry"/>
                    </mxCell>
                </object>
                <object placeholders="1" c4Type="PT.MY.Account.API" c4Container="PT.MY.Account" c4Technology="NET 6, API" c4Description="Gerenciar todo tipo de autorização, permissão e identidade do Cliente." label="&lt;font style=&quot;font-size: 16px&quot;&gt;&lt;b&gt;%c4Type%&lt;/font&gt;&lt;div&gt;[%c4Container%:&amp;nbsp;%c4Technology%]&lt;/div&gt;&lt;br&gt;&lt;div&gt;&lt;font style=&quot;font-size: 11px&quot;&gt;&lt;font color=&quot;#E6E6E6&quot;&gt;%c4Description%&lt;/font&gt;&lt;/div&gt;" id="W4E02yLoTRZ_GBcOoKTg-6">
                    <mxCell style="shape=hexagon;size=50;perimeter=hexagonPerimeter2;whiteSpace=wrap;html=1;fixedSize=1;rounded=1;labelBackgroundColor=none;fillColor=#23A2D9;fontSize=12;fontColor=#ffffff;align=center;strokeColor=#0E7DAD;metaEdit=1;points=[[0.5,0,0],[1,0.25,0],[1,0.5,0],[1,0.75,0],[0.5,1,0],[0,0.75,0],[0,0.5,0],[0,0.25,0]];resizable=0;shadow=1;" vertex="1" parent="1">
                        <mxGeometry x="1360" y="585" width="200" height="170" as="geometry"/>
                    </mxCell>
                </object>
                <object placeholders="1" c4Name="Cliente " c4Type="Person" c4Description="Clinte da plataforma " label="&lt;font style=&quot;font-size: 16px&quot;&gt;&lt;b&gt;%c4Name%&lt;/b&gt;&lt;/font&gt;&lt;div&gt;[%c4Type%]&lt;/div&gt;&lt;br&gt;&lt;div&gt;&lt;font style=&quot;font-size: 11px&quot;&gt;&lt;font color=&quot;#cccccc&quot;&gt;%c4Description%&lt;/font&gt;&lt;/div&gt;" id="Soncr6TduwRKnoVzpao1-2">
                    <mxCell style="html=1;fontSize=11;dashed=0;whitespace=wrap;fillColor=#083F75;strokeColor=#06315C;fontColor=#ffffff;shape=mxgraph.c4.person2;align=center;metaEdit=1;points=[[0.5,0,0],[1,0.5,0],[1,0.75,0],[0.75,1,0],[0.5,1,0],[0.25,1,0],[0,0.75,0],[0,0.5,0]];resizable=0;" parent="1" vertex="1">
                        <mxGeometry x="324.0000000000001" y="-520" width="200" height="180" as="geometry"/>
                    </mxCell>
                </object>
                <object placeholders="1" c4Type="Single-Page Application" c4Container="Container" c4Technology="React, JavaScript, Typescript" c4Description="Prover toda funcionalidade entre Plataforma e Browser" label="&lt;font style=&quot;font-size: 16px&quot;&gt;&lt;b&gt;%c4Type%&lt;/font&gt;&lt;div&gt;[%c4Container%:&amp;nbsp;%c4Technology%]&lt;/div&gt;&lt;br&gt;&lt;div&gt;&lt;font style=&quot;font-size: 11px&quot;&gt;&lt;font color=&quot;#E6E6E6&quot;&gt;%c4Description%&lt;/font&gt;&lt;/div&gt;" id="Soncr6TduwRKnoVzpao1-7">
                    <mxCell style="shape=mxgraph.c4.webBrowserContainer;whiteSpace=wrap;html=1;boundedLbl=1;rounded=0;labelBackgroundColor=none;fillColor=#118ACD;fontSize=12;fontColor=#ffffff;align=center;strokeColor=#0E7DAD;metaEdit=1;points=[[0.5,0,0],[1,0.25,0],[1,0.5,0],[1,0.75,0],[0.5,1,0],[0,0.75,0],[0,0.5,0],[0,0.25,0]];resizable=0;" parent="1" vertex="1">
                        <mxGeometry x="294.0000000000001" y="-130" width="240" height="160" as="geometry"/>
                    </mxCell>
                </object>
                <object placeholders="1" c4Type="PT.MY.Gateway.API" c4Container="PT.MY.Gateway" c4Technology="NET 6, Ocelopt" c4Description="Distribuir as requisições entre os Serviços" label="&lt;font style=&quot;font-size: 16px&quot;&gt;&lt;b&gt;%c4Type%&lt;/font&gt;&lt;div&gt;[%c4Container%:&amp;nbsp;%c4Technology%]&lt;/div&gt;&lt;br&gt;&lt;div&gt;&lt;font style=&quot;font-size: 11px&quot;&gt;&lt;font color=&quot;#E6E6E6&quot;&gt;%c4Description%&lt;/font&gt;&lt;/div&gt;" id="Soncr6TduwRKnoVzpao1-8">
                    <mxCell style="shape=hexagon;size=50;perimeter=hexagonPerimeter2;whiteSpace=wrap;html=1;fixedSize=1;rounded=1;labelBackgroundColor=none;fillColor=#23A2D9;fontSize=12;fontColor=#ffffff;align=center;strokeColor=#0E7DAD;metaEdit=1;points=[[0.5,0,0],[1,0.25,0],[1,0.5,0],[1,0.75,0],[0.5,1,0],[0,0.75,0],[0,0.5,0],[0,0.25,0]];resizable=0;" parent="1" vertex="1">
                        <mxGeometry x="314.0000000000001" y="100" width="200" height="170" as="geometry"/>
                    </mxCell>
                </object>
                <object placeholders="1" c4Type="Relationship" c4Technology="JSON/HTTP" c4Description="Fazer Chamadas API" label="&lt;div style=&quot;text-align: left&quot;&gt;&lt;div style=&quot;text-align: center&quot;&gt;&lt;b&gt;%c4Description%&lt;/b&gt;&lt;/div&gt;&lt;div style=&quot;text-align: center&quot;&gt;[%c4Technology%]&lt;/div&gt;&lt;/div&gt;" id="Soncr6TduwRKnoVzpao1-15">
                    <mxCell style="endArrow=blockThin;html=1;fontSize=10;fontColor=#FFFFFF;strokeWidth=1;endFill=1;elbow=vertical;metaEdit=1;endSize=14;startSize=14;jumpStyle=arc;jumpSize=16;rounded=0;edgeStyle=orthogonalEdgeStyle;exitX=0.5;exitY=1;exitDx=0;exitDy=0;exitPerimeter=0;entryX=0.5;entryY=0;entryDx=0;entryDy=0;entryPerimeter=0;" parent="1" source="Soncr6TduwRKnoVzpao1-7" target="Soncr6TduwRKnoVzpao1-8" edge="1">
                        <mxGeometry width="240" relative="1" as="geometry">
                            <mxPoint x="264.0000000000001" y="-110" as="sourcePoint"/>
                            <mxPoint x="504.0000000000001" y="-110" as="targetPoint"/>
                        </mxGeometry>
                    </mxCell>
                </object>
                <object placeholders="1" c4Type="Relationship" c4Technology="" c4Description="Visualizar as Lojas, Lanchonetes, Categorias e Produtos" label="&lt;div style=&quot;text-align: left&quot;&gt;&lt;div style=&quot;text-align: center&quot;&gt;&lt;b&gt;%c4Description%&lt;/b&gt;&lt;/div&gt;&lt;div style=&quot;text-align: center&quot;&gt;[%c4Technology%]&lt;/div&gt;&lt;/div&gt;" id="Soncr6TduwRKnoVzpao1-19">
                    <mxCell style="endArrow=blockThin;html=1;fontSize=10;fontColor=#FFFFFF;strokeWidth=1;endFill=1;strokeColor=default;elbow=vertical;metaEdit=1;endSize=14;startSize=14;jumpStyle=arc;jumpSize=16;edgeStyle=orthogonalEdgeStyle;exitX=0.75;exitY=1;exitDx=0;exitDy=0;exitPerimeter=0;curved=1;" parent="1" source="Soncr6TduwRKnoVzpao1-2" edge="1">
                        <mxGeometry x="-0.5557" width="240" relative="1" as="geometry">
                            <mxPoint x="154.0000000000001" y="-280" as="sourcePoint"/>
                            <mxPoint x="414.0000000000001" y="-130" as="targetPoint"/>
                            <Array as="points">
                                <mxPoint x="474.0000000000001" y="-130"/>
                            </Array>
                            <mxPoint as="offset"/>
                        </mxGeometry>
                    </mxCell>
                </object>
                <object placeholders="1" c4Type="Relationship" c4Technology="" c4Description="Gerenciar os Produtos no Carrinho" label="&lt;div style=&quot;text-align: left&quot;&gt;&lt;div style=&quot;text-align: center&quot;&gt;&lt;b&gt;%c4Description%&lt;/b&gt;&lt;/div&gt;&lt;div style=&quot;text-align: center&quot;&gt;[%c4Technology%]&lt;/div&gt;&lt;/div&gt;" id="Soncr6TduwRKnoVzpao1-21">
                    <mxCell style="endArrow=blockThin;html=1;fontSize=10;fontColor=#FFFFFF;strokeWidth=1;endFill=1;strokeColor=default;elbow=vertical;metaEdit=1;endSize=14;startSize=14;jumpStyle=arc;jumpSize=16;edgeStyle=orthogonalEdgeStyle;exitX=0.25;exitY=1;exitDx=0;exitDy=0;exitPerimeter=0;entryX=0.5;entryY=0;entryDx=0;entryDy=0;entryPerimeter=0;curved=1;" parent="1" source="Soncr6TduwRKnoVzpao1-2" target="Soncr6TduwRKnoVzpao1-7" edge="1">
                        <mxGeometry x="-0.1853" width="240" relative="1" as="geometry">
                            <mxPoint x="334.0000000000001" y="-375" as="sourcePoint"/>
                            <mxPoint x="264.0000000000001" y="-120" as="targetPoint"/>
                            <Array as="points">
                                <mxPoint x="364.0000000000001" y="-340"/>
                                <mxPoint x="364.0000000000001" y="-130"/>
                            </Array>
                            <mxPoint y="1" as="offset"/>
                        </mxGeometry>
                    </mxCell>
                </object>
                <object placeholders="1" c4Type="Relationship" c4Technology="" c4Description="Avaliar os Produtos" label="&lt;div style=&quot;text-align: left&quot;&gt;&lt;div style=&quot;text-align: center&quot;&gt;&lt;b&gt;%c4Description%&lt;/b&gt;&lt;/div&gt;&lt;div style=&quot;text-align: center&quot;&gt;[%c4Technology%]&lt;/div&gt;&lt;/div&gt;" id="Soncr6TduwRKnoVzpao1-22">
                    <mxCell style="endArrow=blockThin;html=1;fontSize=10;fontColor=#FFFFFF;strokeWidth=1;endFill=1;strokeColor=default;elbow=vertical;metaEdit=1;endSize=14;startSize=14;jumpStyle=arc;jumpSize=16;edgeStyle=orthogonalEdgeStyle;exitX=0;exitY=0.5;exitDx=0;exitDy=0;exitPerimeter=0;entryX=0.5;entryY=0;entryDx=0;entryDy=0;entryPerimeter=0;curved=1;" parent="1" source="Soncr6TduwRKnoVzpao1-2" edge="1">
                        <mxGeometry x="-0.2076" width="240" relative="1" as="geometry">
                            <mxPoint x="484.0000000000001" y="-330" as="sourcePoint"/>
                            <mxPoint x="424.0000000000001" y="-120" as="targetPoint"/>
                            <mxPoint y="1" as="offset"/>
                            <Array as="points">
                                <mxPoint x="264.0000000000001" y="-430"/>
                                <mxPoint x="264.0000000000001" y="-120"/>
                            </Array>
                        </mxGeometry>
                    </mxCell>
                </object>
                <object placeholders="1" c4Type="Relationship" c4Technology="" c4Description="Acompanhar o Pedido " label="&lt;div style=&quot;text-align: left&quot;&gt;&lt;div style=&quot;text-align: center&quot;&gt;&lt;b&gt;%c4Description%&lt;/b&gt;&lt;/div&gt;&lt;div style=&quot;text-align: center&quot;&gt;[%c4Technology%]&lt;/div&gt;&lt;/div&gt;" id="Soncr6TduwRKnoVzpao1-23">
                    <mxCell style="endArrow=blockThin;html=1;fontSize=10;fontColor=#FFFFFF;strokeWidth=1;endFill=1;strokeColor=default;elbow=vertical;metaEdit=1;endSize=14;startSize=14;jumpStyle=arc;jumpSize=16;edgeStyle=orthogonalEdgeStyle;exitX=1;exitY=0.5;exitDx=0;exitDy=0;exitPerimeter=0;curved=1;" parent="1" source="Soncr6TduwRKnoVzpao1-2" edge="1">
                        <mxGeometry x="-0.3876" width="240" relative="1" as="geometry">
                            <mxPoint x="484.0000000000001" y="-330" as="sourcePoint"/>
                            <mxPoint x="424.0000000000001" y="-120" as="targetPoint"/>
                            <Array as="points">
                                <mxPoint x="564.0000000000001" y="-430"/>
                                <mxPoint x="564.0000000000001" y="-120"/>
                            </Array>
                            <mxPoint y="-1" as="offset"/>
                        </mxGeometry>
                    </mxCell>
                </object>
                <object placeholders="1" c4Type="Relationship" c4Technology="" c4Description="Efetuar pagamento Pedido" label="&lt;div style=&quot;text-align: left&quot;&gt;&lt;div style=&quot;text-align: center&quot;&gt;&lt;b&gt;%c4Description%&lt;/b&gt;&lt;/div&gt;&lt;div style=&quot;text-align: center&quot;&gt;[%c4Technology%]&lt;/div&gt;&lt;/div&gt;" id="Soncr6TduwRKnoVzpao1-26">
                    <mxCell style="endArrow=blockThin;html=1;fontSize=10;fontColor=#FFFFFF;strokeWidth=1;endFill=1;strokeColor=default;elbow=vertical;metaEdit=1;endSize=14;startSize=14;jumpStyle=arc;jumpSize=16;edgeStyle=orthogonalEdgeStyle;exitX=0.5;exitY=1;exitDx=0;exitDy=0;exitPerimeter=0;curved=1;entryX=0.632;entryY=0.028;entryDx=0;entryDy=0;entryPerimeter=0;" parent="1" source="Soncr6TduwRKnoVzpao1-2" target="Soncr6TduwRKnoVzpao1-7" edge="1">
                        <mxGeometry x="0.3692" width="240" relative="1" as="geometry">
                            <mxPoint x="534.0000000000001" y="-420" as="sourcePoint"/>
                            <mxPoint x="424.0000000000001" y="-110" as="targetPoint"/>
                            <Array as="points">
                                <mxPoint x="446.0000000000001" y="-340"/>
                            </Array>
                            <mxPoint as="offset"/>
                        </mxGeometry>
                    </mxCell>
                </object>
                <object placeholders="1" c4Type="PT.MY.Assessment.API" c4Container="PT.MY.Assessment" c4Technology="NET 6, API" c4Description="Gerenciar todo tipo de avaliação de Produto" label="&lt;font style=&quot;font-size: 16px&quot;&gt;&lt;b&gt;%c4Type%&lt;/font&gt;&lt;div&gt;[%c4Container%:&amp;nbsp;%c4Technology%]&lt;/div&gt;&lt;br&gt;&lt;div&gt;&lt;font style=&quot;font-size: 11px&quot;&gt;&lt;font color=&quot;#E6E6E6&quot;&gt;%c4Description%&lt;/font&gt;&lt;/div&gt;" id="W4E02yLoTRZ_GBcOoKTg-8">
                    <mxCell style="shape=hexagon;size=80;perimeter=hexagonPerimeter2;whiteSpace=wrap;html=1;fixedSize=1;rounded=1;labelBackgroundColor=none;fillColor=#23A2D9;fontSize=12;fontColor=#ffffff;align=center;strokeColor=#0E7DAD;metaEdit=1;points=[[0.5,0,0],[1,0.25,0],[1,0.5,0],[1,0.75,0],[0.5,1,0],[0,0.75,0],[0,0.5,0],[0,0.25,0]];resizable=0;shadow=1;" vertex="1" parent="1">
                        <mxGeometry x="-660" y="573" width="200" height="170" as="geometry"/>
                    </mxCell>
                </object>
            </root>
        </mxGraphModel>
    </diagram>
    <diagram id="ripkrFdye2kCkY07qb8o" name="Motoboy">
        <mxGraphModel dx="1029" dy="1460" grid="1" gridSize="10" guides="1" tooltips="1" connect="1" arrows="1" fold="1" page="1" pageScale="1" pageWidth="827" pageHeight="1169" math="0" shadow="0">
            <root>
                <mxCell id="eBm6esUlXjSZQAqYStJm-0"/>
                <mxCell id="eBm6esUlXjSZQAqYStJm-1" parent="eBm6esUlXjSZQAqYStJm-0"/>
            </root>
        </mxGraphModel>
    </diagram>
    <diagram id="kf_PheZCBXeYjU89UZvq" name="Assinatura">
        <mxGraphModel grid="1" gridSize="10" guides="1" tooltips="1" connect="1" arrows="1" page="1" fold="1" pageScale="1" pageWidth="827" pageHeight="1169" math="0" shadow="0">
            <root>
                <mxCell id="Di6spuNAViXlPUS7z1cN-0"/>
                <mxCell id="Di6spuNAViXlPUS7z1cN-1" parent="Di6spuNAViXlPUS7z1cN-0"/>
            </root>
        </mxGraphModel>
    </diagram>
    <diagram id="_y7d0lxpdz2Qcm548ULd" name="Comerciante">
        <mxGraphModel grid="1" gridSize="10" guides="1" tooltips="1" connect="1" arrows="1" page="1" fold="1" pageScale="1" pageWidth="827" pageHeight="1169" math="0" shadow="0">
            <root>
                <mxCell id="-leJtd9WzwF2uYeRZPoL-0"/>
                <mxCell id="-leJtd9WzwF2uYeRZPoL-1" parent="-leJtd9WzwF2uYeRZPoL-0"/>
            </root>
        </mxGraphModel>
    </diagram>
</mxfile>